<?xml version="1.0" standalone="no"?><!DOCTYPE svg PUBLIC "-//W3C//DTD SVG 1.1//EN" "http://www.w3.org/Graphics/SVG/1.1/DTD/svg11.dtd"><svg t="1599099594394" class="icon" viewBox="0 0 2291 1024" version="1.1" xmlns="http://www.w3.org/2000/svg" p-id="3018" xmlns:xlink="http://www.w3.org/1999/xlink" width="107.390625" height="48"><defs><style type="text/css"></style></defs><path d="M1082.374649 512m-512 0a512 512 0 1 0 1024 0 512 512 0 1 0-1024 0Z" fill="#33A0FF" p-id="3019"></path><path d="M1148.868156 633.683117l17.288312-10.638961c5.651948-3.657143 11.636364-6.649351 17.953246-9.641559 38.898701-17.620779 73.475325-5.319481 118.690909 47.875325 28.25974 32.914286 36.571429 62.171429 25.6 88.103896-7.979221 19.283117-23.605195 32.914286-51.532467 49.205195l-21.942857 12.966234c-64.498701 39.896104-212.779221-51.2-319.168831-207.459741-106.722078-156.25974-134.649351-323.158442-69.153247-363.71948l8.644156-5.651948 9.309091-5.984416c33.246753-21.277922 54.192208-29.922078 79.45974-25.6 24.935065 4.322078 46.545455 22.94026 64.498701 56.519481 37.901299 71.480519 29.58961 105.392208-19.283117 136.311688-3.657143 2.327273-15.958442 9.974026-17.288311 10.638961-11.968831 7.314286 8.311688 57.184416 55.522077 126.337663 48.207792 70.815584 88.103896 109.049351 101.402598 100.737662z" fill="#FFFFFF" p-id="3020"></path></svg>